# xmcd
#
# Track frame offsets: 
#        150
#        22602
#        41404
#        61092
#        84604
#        100596
#        126960
#        141328
#        159595
#        190338
#        215426
#
# Disc length: 3127 seconds
#
# Revision: 0
# Processed by: cddbd v1.5.2PL0 Copyright (c) Steve Scherf et al.
# Submitted via: ExactAudioCopyFreeDBPlugin 1.0
#
DISCID=8b0c350b
DTITLE=The Blues Messangers - Uncut
DYEAR=2017
DGENRE=Blues
TTITLE0=Devil's Gone Fishing
TTITLE1=Made Up My Mind
TTITLE2=Constant Natural High
TTITLE3=Drivin' Blues
TTITLE4=21st Century Blues
TTITLE5=Life's A Wonder
TTITLE6=Back With A Bang
TTITLE7=Tumbin'
TTITLE8=Honeytrap
TTITLE9=Turn The Ship Around
TTITLE10=(She Was) Brave Enough
EXTD=
EXTT0=
EXTT1=
EXTT2=
EXTT3=
EXTT4=
EXTT5=
EXTT6=
EXTT7=
EXTT8=
EXTT9=
EXTT10=
PLAYORDER=
